<svg xmlns="http://www.w3.org/2000/svg" viewBox="0 0 128 128" role="img" aria-labelledby="title description">
  <title id="title">vscode-toolbox-namewta</title>
  <desc id="description">A developer toolbox combining code brackets with a Git review timeline.</desc>
  <rect width="128" height="128" rx="26" fill="#0f172a"/>
  <rect x="4" y="4" width="120" height="120" rx="22" fill="none" stroke="#26364a" stroke-width="2"/>
  <path d="M42 31v-5c0-5 4-9 9-9h26c5 0 9 4 9 9v5" fill="none" stroke="#79d7e7" stroke-linecap="round" stroke-width="7"/>
  <path d="M20 39h88v61c0 7-5 12-12 12H32c-7 0-12-5-12-12Z" fill="#14263b" stroke="#79d7e7" stroke-width="3"/>
  <path d="M20 43h88" stroke="#27465b" stroke-width="3"/>
  <path d="M51 57 39 68l12 11M75 57l12 11-12 11M68 52 58 84" fill="none" stroke="#f3f7fa" stroke-linecap="round" stroke-linejoin="round" stroke-width="6"/>
  <path d="M96 52v43" stroke="#f2b84b" stroke-linecap="round" stroke-width="3"/>
  <circle cx="96" cy="56" r="5" fill="#f2b84b" stroke="#0f172a" stroke-width="3"/>
  <circle cx="96" cy="73" r="5" fill="#f2b84b" stroke="#0f172a" stroke-width="3"/>
  <circle cx="96" cy="90" r="5" fill="#f2b84b" stroke="#0f172a" stroke-width="3"/>
</svg>
